P3
20 20
255
0 0 0
13 0 0
26 0 0
40 0 0
53 0 0
67 0 0
80 0 0
94 0 0
107 0 0
121 0 0
134 0 0
148 0 0
161 0 0
175 0 0
188 0 0
202 0 0
215 0 0
229 0 0
242 0 0
255 0 0
0 13 0
13 13 0
26 13 0
40 13 0
53 13 0
67 13 0
80 13 0
94 13 0
107 13 0
121 13 0
134 13 0
148 13 0
161 13 0
175 13 0
188 13 0
202 13 0
215 13 0
229 13 0
242 13 0
255 13 0
0 26 0
13 26 0
26 26 0
40 26 0
53 26 0
67 26 0
80 26 0
94 26 0
107 26 0
121 26 0
134 26 0
148 26 0
161 26 0
175 26 0
188 26 0
202 26 0
215 26 0
229 26 0
242 26 0
255 26 0
0 40 0
13 40 0
26 40 0
40 40 0
53 40 0
67 40 0
80 40 0
94 40 0
107 40 0
121 40 0
134 40 0
148 40 0
161 40 0
175 40 0
188 40 0
202 40 0
215 40 0
229 40 0
242 40 0
255 40 0
0 53 0
13 53 0
26 53 0
40 53 0
53 53 0
67 53 0
80 53 0
94 53 0
107 53 0
121 53 0
134 53 0
148 53 0
161 53 0
175 53 0
188 53 0
202 53 0
215 53 0
229 53 0
242 53 0
255 53 0
0 67 0
13 67 0
26 67 0
40 67 0
53 67 0
67 67 0
80 67 0
94 67 0
107 67 0
121 67 0
134 67 0
148 67 0
161 67 0
175 67 0
188 67 0
202 67 0
215 67 0
229 67 0
242 67 0
255 67 0
0 80 0
13 80 0
26 80 0
40 80 0
53 80 0
67 80 0
80 80 0
94 80 0
107 80 0
121 80 0
134 80 0
148 80 0
161 80 0
175 80 0
188 80 0
202 80 0
215 80 0
229 80 0
242 80 0
255 80 0
0 94 0
13 94 0
26 94 0
40 94 0
53 94 0
67 94 0
80 94 0
94 94 0
107 94 0
121 94 0
134 94 0
148 94 0
161 94 0
175 94 0
188 94 0
202 94 0
215 94 0
229 94 0
242 94 0
255 94 0
0 107 0
13 107 0
26 107 0
40 107 0
53 107 0
67 107 0
80 107 0
94 107 0
107 107 0
121 107 0
134 107 0
148 107 0
161 107 0
175 107 0
188 107 0
202 107 0
215 107 0
229 107 0
242 107 0
255 107 0
0 121 0
13 121 0
26 121 0
40 121 0
53 121 0
67 121 0
80 121 0
94 121 0
107 121 0
121 121 0
134 121 0
148 121 0
161 121 0
175 121 0
188 121 0
202 121 0
215 121 0
229 121 0
242 121 0
255 121 0
0 134 0
13 134 0
26 134 0
40 134 0
53 134 0
67 134 0
80 134 0
94 134 0
107 134 0
121 134 0
134 134 0
148 134 0
161 134 0
175 134 0
188 134 0
202 134 0
215 134 0
229 134 0
242 134 0
255 134 0
0 148 0
13 148 0
26 148 0
40 148 0
53 148 0
67 148 0
80 148 0
94 148 0
107 148 0
121 148 0
134 148 0
148 148 0
161 148 0
175 148 0
188 148 0
202 148 0
215 148 0
229 148 0
242 148 0
255 148 0
0 161 0
13 161 0
26 161 0
40 161 0
53 161 0
67 161 0
80 161 0
94 161 0
107 161 0
121 161 0
134 161 0
148 161 0
161 161 0
175 161 0
188 161 0
202 161 0
215 161 0
229 161 0
242 161 0
255 161 0
0 175 0
13 175 0
26 175 0
40 175 0
53 175 0
67 175 0
80 175 0
94 175 0
107 175 0
121 175 0
134 175 0
148 175 0
161 175 0
175 175 0
188 175 0
202 175 0
215 175 0
229 175 0
242 175 0
255 175 0
0 188 0
13 188 0
26 188 0
40 188 0
53 188 0
67 188 0
80 188 0
94 188 0
107 188 0
121 188 0
134 188 0
148 188 0
161 188 0
175 188 0
188 188 0
202 188 0
215 188 0
229 188 0
242 188 0
255 188 0
0 202 0
13 202 0
26 202 0
40 202 0
53 202 0
67 202 0
80 202 0
94 202 0
107 202 0
121 202 0
134 202 0
148 202 0
161 202 0
175 202 0
188 202 0
202 202 0
215 202 0
229 202 0
242 202 0
255 202 0
0 215 0
13 215 0
26 215 0
40 215 0
53 215 0
67 215 0
80 215 0
94 215 0
107 215 0
121 215 0
134 215 0
148 215 0
161 215 0
175 215 0
188 215 0
202 215 0
215 215 0
229 215 0
242 215 0
255 215 0
0 229 0
13 229 0
26 229 0
40 229 0
53 229 0
67 229 0
80 229 0
94 229 0
107 229 0
121 229 0
134 229 0
148 229 0
161 229 0
175 229 0
188 229 0
202 229 0
215 229 0
229 229 0
242 229 0
255 229 0
0 242 0
13 242 0
26 242 0
40 242 0
53 242 0
67 242 0
80 242 0
94 242 0
107 242 0
121 242 0
134 242 0
148 242 0
161 242 0
175 242 0
188 242 0
202 242 0
215 242 0
229 242 0
242 242 0
255 242 0
0 255 0
13 255 0
26 255 0
40 255 0
53 255 0
67 255 0
80 255 0
94 255 0
107 255 0
121 255 0
134 255 0
148 255 0
161 255 0
175 255 0
188 255 0
202 255 0
215 255 0
229 255 0
242 255 0
255 255 0
